<svg width="116" height="24" viewBox="0 0 116 24" fill="none" xmlns="http://www.w3.org/2000/svg">
<path d="M22.442 19.0845C22.442 19.5839 22.3533 20.1196 22.1758 20.6918C22.0087 21.264 21.7268 21.7945 21.3301 22.2835C20.9438 22.7724 20.4374 23.1834 19.811 23.5163C19.1846 23.8388 18.4172 24 17.5088 24H2.05157C1.75924 24 1.48778 23.948 1.23721 23.844C0.986634 23.7399 0.767382 23.5995 0.579452 23.4226C0.401962 23.2354 0.261014 23.0169 0.156609 22.7672C0.0522029 22.5176 0 22.2471 0 21.9558V3.6671C0 3.38622 0.0522029 3.12094 0.156609 2.87126C0.261014 2.62159 0.401962 2.40312 0.579452 2.21586C0.767382 2.02861 0.986634 1.88296 1.23721 1.77893C1.48778 1.6749 1.75924 1.62289 2.05157 1.62289H15.6765C16.1777 1.62289 16.7154 1.71131 17.2896 1.88817C17.8638 2.06502 18.3963 2.35111 18.887 2.74642C19.3881 3.13134 19.8005 3.63589 20.1242 4.26008C20.4583 4.88427 20.6254 5.64889 20.6254 6.55397V7.3186C20.6254 8.03641 20.5053 8.81144 20.2652 9.64369C20.025 10.4655 19.6387 11.2458 19.1063 11.9844C19.5656 12.2653 19.9937 12.6034 20.3904 12.9987C20.7976 13.394 21.1526 13.8518 21.4554 14.3719C21.7582 14.8921 21.9983 15.4798 22.1758 16.1352C22.3533 16.7906 22.442 17.5137 22.442 18.3043V19.0845ZM18.3702 18.3043C18.3702 17.7737 18.2867 17.3004 18.1196 16.8843C17.9526 16.4577 17.7177 16.0936 17.4149 15.7919C17.1121 15.4902 16.7467 15.2614 16.3186 15.1053C15.8906 14.9389 15.4103 14.8557 14.8778 14.8557H5.70055V10.7672H13.0455C13.578 10.7672 14.0582 10.6892 14.4863 10.5332C14.9144 10.3667 15.2798 10.1326 15.5826 9.83095C15.8853 9.52926 16.115 9.17035 16.2716 8.75423C16.4387 8.3277 16.5222 7.84915 16.5222 7.3186V6.55397C16.5222 5.97139 16.2403 5.6801 15.6765 5.6801H4.07182V19.9428H17.5088C17.5819 19.9428 17.6707 19.9376 17.7751 19.9272C17.8795 19.9168 17.9734 19.8856 18.057 19.8335C18.1405 19.7815 18.2136 19.6931 18.2762 19.5683C18.3389 19.4434 18.3702 19.2718 18.3702 19.0533V18.3043Z" fill="white"/>
<path d="M43.7564 12.7178C43.7564 13.2796 43.6573 13.8882 43.4589 14.5436C43.2605 15.1886 42.9369 15.7919 42.4879 16.3537C42.0494 16.9051 41.47 17.368 40.7496 17.7425C40.0396 18.117 39.173 18.3043 38.1499 18.3043H30.8049V14.4499H38.1499C38.7032 14.4499 39.1313 14.2835 39.434 13.9506C39.7368 13.6073 39.8882 13.186 39.8882 12.6866C39.8882 12.156 39.7159 11.7399 39.3714 11.4382C39.0373 11.1365 38.6301 10.9857 38.1499 10.9857H30.8049C30.2516 10.9857 29.8235 11.1573 29.5207 11.5007C29.2179 11.8336 29.0666 12.2497 29.0666 12.749V18.4135C29.0666 18.9545 29.2336 19.3758 29.5677 19.6775C29.9122 19.9792 30.3351 20.13 30.8362 20.13H38.1499V24H30.8049C30.2411 24 29.6303 23.9012 28.9726 23.7035C28.3253 23.5059 27.7197 23.1886 27.1559 22.7516C26.6026 22.3043 26.138 21.7269 25.7621 21.0195C25.3863 20.3017 25.1983 19.433 25.1983 18.4135V12.7178C25.1983 12.156 25.2975 11.5527 25.4959 10.9077C25.6943 10.2523 26.0127 9.64889 26.4512 9.09753C26.9001 8.53576 27.4796 8.06762 28.1896 7.69311C28.91 7.3186 29.7817 7.13134 30.8049 7.13134H38.1499C38.7137 7.13134 39.3192 7.23017 39.9665 7.42783C40.6243 7.62549 41.2298 7.94798 41.7832 8.39532C42.347 8.83225 42.8168 9.40962 43.1927 10.1274C43.5685 10.8349 43.7564 11.6983 43.7564 12.7178Z" fill="white"/>
<path d="M62.8627 18.3043C62.8627 19.0013 62.774 19.6307 62.5965 20.1925C62.419 20.7438 62.1841 21.2328 61.8917 21.6593C61.5994 22.0754 61.2601 22.4343 60.8738 22.736C60.4875 23.0273 60.0803 23.2666 59.6522 23.4538C59.2346 23.6411 58.8065 23.7815 58.368 23.8752C57.94 23.9584 57.5328 24 57.1465 24H46.1212V19.9428H57.1152C57.6685 19.9428 58.0861 19.8023 58.368 19.5215C58.6499 19.2406 58.7909 18.8348 58.7909 18.3043C58.7387 17.2224 58.1905 16.6814 57.1465 16.6814H50.8352C49.9373 16.6814 49.1751 16.5254 48.5487 16.2133C47.9222 15.9012 47.4106 15.5111 47.0139 15.0429C46.6276 14.5748 46.3457 14.0702 46.1682 13.5293C46.0012 12.9883 45.9176 12.4837 45.9176 12.0156C45.9176 11.1105 46.0795 10.3511 46.4031 9.73732C46.7268 9.11313 47.134 8.60858 47.6247 8.22367C48.1154 7.83875 48.6479 7.56307 49.2221 7.39662C49.7963 7.21977 50.334 7.13134 50.8352 7.13134H60.8424V11.1886H50.8665C50.6577 11.1886 50.4906 11.2146 50.3653 11.2666C50.2505 11.3082 50.1617 11.3706 50.0991 11.4538C50.0469 11.5267 50.0156 11.6099 50.0051 11.7035C49.9947 11.7867 49.9895 11.87 49.9895 11.9532C49.9999 12.1196 50.0312 12.2497 50.0834 12.3433C50.1356 12.4369 50.1983 12.5046 50.2714 12.5462C50.3549 12.5878 50.4436 12.6138 50.5376 12.6242C50.642 12.6242 50.7412 12.6242 50.8352 12.6242H57.1465C58.1905 12.6242 59.078 12.8114 59.8088 13.186C60.5397 13.5605 61.1296 14.0338 61.5785 14.606C62.0275 15.1678 62.3511 15.7815 62.5495 16.4473C62.7583 17.1131 62.8627 17.7321 62.8627 18.3043Z" fill="white"/>
<path d="M84.4903 24H80.4185V14.6372C80.4185 14.1066 80.3246 13.6333 80.1366 13.2172C79.9591 12.7906 79.7138 12.4265 79.4006 12.1248C79.0873 11.8231 78.7167 11.5943 78.2886 11.4382C77.871 11.2718 77.4169 11.1886 76.9262 11.1886H69.8005V24H65.7286V9.14434C65.7286 8.86346 65.7808 8.60338 65.8852 8.36411C65.9897 8.11443 66.1358 7.90117 66.3237 7.72432C66.5117 7.53706 66.7309 7.39142 66.9815 7.28739C67.2321 7.18336 67.4983 7.13134 67.7802 7.13134H76.9575C77.4691 7.13134 78.0068 7.18856 78.5705 7.30299C79.1448 7.41743 79.7086 7.60468 80.2619 7.86476C80.8257 8.11443 81.3582 8.43693 81.8593 8.83225C82.3709 9.21717 82.8199 9.69051 83.2062 10.2523C83.6029 10.8036 83.9161 11.4434 84.1458 12.1717C84.3755 12.8999 84.4903 13.7217 84.4903 14.6372V24Z" fill="white"/>
<path d="M92.1955 3.6671H88.1237V0H92.1955V3.6671ZM92.1955 24H88.1237V7.13134H92.1955V24Z" fill="white"/>
<path d="M116 24H110.127L101.921 16.104C101.461 15.6879 101.247 15.1678 101.279 14.5436C101.3 14.2523 101.373 13.9818 101.498 13.7321C101.634 13.472 101.816 13.2536 102.046 13.0767L109.485 7.10013H116L106.416 14.7932L116 24ZM100.245 24H96.1733V0H100.245V24Z" fill="white"/>
</svg>
