<svg width="101" height="30" viewBox="0 0 101 30" fill="none" xmlns="http://www.w3.org/2000/svg">
<path d="M58.152 1.01393V3.28721C58.1582 3.43966 58.2239 3.5836 58.3351 3.68811C58.4462 3.79262 58.594 3.84936 58.7465 3.84614H64.0268L57.9429 12.5524C57.5583 13.112 57.5583 13.7411 57.5583 14.0907V16.3982C57.5583 16.7479 57.9427 17.0974 58.2923 16.9226C61.7188 15.0695 65.8796 15.2443 68.9915 16.8876C69.3759 17.0972 69.7256 16.7129 69.7256 16.3632V13.9506C69.6905 13.636 69.5857 13.2863 69.2011 13.0765C67.4531 12.0978 65.39 11.8181 63.4319 11.8531L68.6765 4.37061C69.1661 3.67104 69.4458 3.25168 69.4458 2.937V1.01393C69.4397 0.86139 69.3741 0.717315 69.2629 0.612691C69.1517 0.508067 69.0039 0.451252 68.8513 0.454465H58.7115C58.637 0.450494 58.5625 0.462245 58.4928 0.488956C58.4231 0.515667 58.3598 0.556738 58.3071 0.609503C58.2543 0.662268 58.2132 0.725545 58.1865 0.795221C58.1598 0.864897 58.1481 0.939415 58.152 1.01393Z" fill="#C4C4C4"/>
<path d="M18.1174 17.3774H21.1943C21.3454 17.3828 21.4931 17.3323 21.6092 17.2356C21.7253 17.1388 21.8017 17.0026 21.8237 16.8531V8.46143C21.8237 8.40663 21.8236 8.35126 21.8235 8.29539C21.8215 6.46158 21.8189 4.09082 23.9565 4.09082C25.9083 4.09082 25.876 6.21665 25.8502 7.91632C25.8474 8.10439 25.8446 8.28725 25.8446 8.46143V16.8531C25.8446 17.1329 26.0894 17.3775 26.4041 17.4125H29.481C29.6336 17.4157 29.7813 17.3589 29.8925 17.2543C30.0036 17.1497 30.0693 17.0056 30.0753 16.8531V8.46143C30.0753 8.38132 30.075 8.29795 30.0748 8.21197C30.0719 7.32228 30.068 6.15281 30.355 5.41954C30.5041 5.04667 30.7589 4.72554 31.0882 4.49567C31.4175 4.26581 31.8068 4.13725 32.2082 4.12582C33.1173 4.12582 33.7817 4.4405 34.0263 5.48943C34.136 5.98331 34.1166 7.12316 34.1032 7.91205C34.0995 8.12844 34.0962 8.31842 34.0962 8.46143V16.8531C34.0962 17.1329 34.341 17.3775 34.6557 17.4125H37.698C37.8506 17.4157 37.9984 17.3589 38.1095 17.2543C38.2207 17.1497 38.2863 17.0056 38.2924 16.8531V6.85314C38.2924 6.59834 38.297 6.3389 38.3017 6.07746C38.3284 4.581 38.3563 3.01919 37.5231 1.88818C36.649 0.664356 35.2504 0.139893 33.9567 0.139893C32.1383 0.139893 30.4248 1.08393 29.6907 3.07689C28.8515 1.08393 27.6278 0.139893 25.7047 0.139893C23.8166 0.139893 22.3828 1.08393 21.6488 3.07689H21.5789V1.01393C21.5676 0.872574 21.504 0.740503 21.4006 0.64352C21.2971 0.546537 21.1612 0.491607 21.0194 0.489463H18.1523C17.9997 0.486277 17.8519 0.543107 17.7408 0.647728C17.6297 0.752349 17.564 0.896407 17.558 1.04893V16.853C17.5807 16.9897 17.6478 17.1151 17.7489 17.2099C17.85 17.3046 17.9795 17.3635 18.1174 17.3774Z" fill="#C4C4C4"/>
<path fill-rule="evenodd" clip-rule="evenodd" d="M85.2498 9.05589C85.2498 4.05593 82.7673 0.139893 78.1869 0.139893C73.7114 0.139893 71.2289 3.98593 71.2638 8.916C71.2638 13.8111 73.7114 17.7271 78.1869 17.7271C82.5226 17.7271 85.2498 13.8811 85.2498 9.05589ZM75.7743 8.42653C75.7743 6.50346 75.9141 3.39157 78.1869 3.39157C79.1659 3.39157 79.8652 3.81103 80.2149 4.92996C80.5995 6.18878 80.6694 7.79707 80.6694 9.12578C80.6694 11.1537 80.5296 14.4754 78.152 14.4754C75.7729 14.4754 75.7738 10.4634 75.7743 8.50789L75.7743 8.42653Z" fill="#C4C4C4"/>
<path d="M88.0819 17.3774H91.1588C91.3136 17.376 91.4626 17.3189 91.5783 17.216C91.694 17.1132 91.7685 16.9719 91.7881 16.8183V8.28643C91.7881 7.2025 91.8579 6.25815 92.2774 5.27943C92.6271 4.51007 93.3266 4.02071 94.0606 4.02071C96.0221 4.02071 96.0023 6.15004 95.9864 7.85204C95.985 8.00074 95.9837 8.14617 95.9837 8.28664V16.8878C96.0187 17.1324 96.2635 17.3421 96.5431 17.3771H99.6202C99.7623 17.3834 99.9016 17.3369 100.011 17.2465C100.121 17.1562 100.194 17.0284 100.215 16.8878V6.92282C100.215 5.38432 100.215 3.25147 99.4106 1.99275C98.5364 0.628931 97.1728 0.139571 95.8092 0.139571C93.6764 0.139571 92.4875 1.1535 91.6134 3.32136H91.5435V0.908823C91.5124 0.782503 91.4409 0.669774 91.34 0.587738C91.239 0.505702 91.114 0.458835 90.984 0.454251H88.1169C87.9713 0.455358 87.8309 0.509031 87.7217 0.605396C87.6125 0.701761 87.5417 0.834333 87.5225 0.978714V16.818C87.5225 17.0977 87.7672 17.3424 88.0819 17.3774Z" fill="#C4C4C4"/>
<path fill-rule="evenodd" clip-rule="evenodd" d="M52.8315 17.4956C52.9632 17.4831 53.0876 17.4295 53.1873 17.3425L53.1884 17.3424C53.4119 17.1562 53.697 16.9128 54.0015 16.6527C54.5549 16.1802 55.1725 15.6527 55.601 15.3145C55.8457 15.1397 55.8108 14.79 55.601 14.5103C55.5336 14.4134 55.4657 14.3191 55.3984 14.2256C54.9069 13.5429 54.4472 12.9041 54.4472 11.6432V6.85304C54.4472 6.69295 54.448 6.53374 54.4489 6.37556C54.459 4.53042 54.4683 2.82657 53.0836 1.53839C51.8947 0.384572 49.9368 0 48.4333 0C45.4963 0 42.2445 1.08393 41.5452 4.72029C41.4753 5.10496 41.7551 5.27975 41.9998 5.34964L44.9718 5.66432C45.2516 5.66432 45.4264 5.38454 45.4963 5.10486C45.7411 3.84604 46.79 3.25168 47.9788 3.25168C48.6076 3.25168 49.307 3.49636 49.6916 4.05582C50.0934 4.61225 50.0853 5.36019 50.078 6.03334C50.0771 6.12157 50.0761 6.20851 50.0761 6.29357V6.67814C49.7862 6.71226 49.4815 6.74452 49.1673 6.77781C47.5489 6.9492 45.6774 7.14739 44.272 7.76207C42.3484 8.60132 40.9848 10.2796 40.9848 12.797C40.9848 15.9788 43.0128 17.5872 45.6002 17.5872C47.768 17.5872 48.9918 17.0622 50.6701 15.3495C50.7518 15.4669 50.8261 15.5761 50.8965 15.6797C51.3082 16.2852 51.5874 16.6958 52.4532 17.4124C52.5675 17.479 52.6998 17.5081 52.8315 17.4956ZM50.0756 10.0129C50.0755 9.95079 50.0754 9.88821 50.0754 9.82514V9.16132C47.8376 9.16132 45.495 9.65089 45.495 12.2732C45.495 13.6019 46.1942 14.511 47.3831 14.511C48.2572 14.511 49.0266 13.9865 49.5159 13.1124C50.0788 12.0854 50.0773 11.1217 50.0756 10.0129Z" fill="#C4C4C4"/>
<path fill-rule="evenodd" clip-rule="evenodd" d="M12.412 17.4956C12.5437 17.4831 12.6681 17.4295 12.7678 17.3425L12.7689 17.3424C12.9924 17.1562 13.2775 16.9128 13.582 16.6527C14.1354 16.1802 14.753 15.6528 15.1815 15.3145C15.4262 15.1397 15.3913 14.79 15.1815 14.5103C15.1141 14.4134 15.0462 14.3191 14.9789 14.2256C14.4874 13.5429 14.0277 12.9041 14.0277 11.6432V6.85304C14.0277 6.69296 14.0285 6.53374 14.0294 6.37556C14.0395 4.53042 14.0488 2.82657 12.6641 1.53839C11.4752 0.384572 9.51727 0 8.01377 0C5.07677 0 1.82498 1.08393 1.12573 4.72029C1.05584 5.10496 1.33562 5.27975 1.5803 5.34964L4.5523 5.66432C4.83209 5.66432 5.00687 5.38454 5.07677 5.10486C5.32155 3.84604 6.37048 3.25168 7.5593 3.25168C8.18813 3.25168 8.88748 3.49636 9.27205 4.05582C9.67386 4.61225 9.66578 5.36019 9.65852 6.03335C9.65757 6.12157 9.65663 6.20852 9.65663 6.29357V6.67814C9.36673 6.71226 9.06202 6.74452 8.74776 6.77781C7.12939 6.9492 5.25791 7.14739 3.85252 7.76207C1.92891 8.60132 0.565308 10.2796 0.565308 12.797C0.565308 15.9788 2.59327 17.5872 5.1807 17.5872C7.34845 17.5872 8.57227 17.0622 10.2506 15.3495C10.3323 15.4669 10.4066 15.5761 10.477 15.6797C10.8887 16.2852 11.1679 16.6958 12.0337 17.4124C12.148 17.479 12.2803 17.5081 12.412 17.4956ZM9.69108 10.0129C9.69098 9.9508 9.69088 9.88822 9.69088 9.82514V9.16132C7.45313 9.16132 5.11049 9.65089 5.11049 12.2732C5.11049 13.6019 5.80974 14.511 6.99856 14.511C7.8727 14.511 8.64206 13.9865 9.13142 13.1124C9.69434 12.0854 9.69282 11.1218 9.69108 10.0129Z" fill="#C4C4C4"/>
<path d="M64.7949 20.6991C64.0609 19.7551 59.8998 20.2445 58.0468 20.4893C57.4873 20.5592 57.3824 20.0698 57.9069 19.7201C61.2285 17.3774 66.6481 18.0767 67.2774 18.8459C67.9068 19.6152 67.1027 25.0693 63.9902 27.657C63.5009 28.0416 63.0462 27.8318 63.2562 27.3074L63.2928 27.2159C64.0088 25.4273 65.5166 21.6611 64.7949 20.6991Z" fill="#C4C4C4"/>
<path d="M62.3825 23.4615C56.6133 27.7275 48.2218 30 40.9841 30C30.8442 30 21.7535 26.2588 14.8304 20.0351C14.306 19.5457 14.7605 18.8813 15.4248 19.2658C22.8723 23.6014 32.0681 26.1889 41.5784 26.1889C47.977 26.1889 55.0398 24.8603 61.5433 22.0979C62.522 21.7134 63.3266 22.7623 62.3825 23.4615Z" fill="#C4C4C4"/>
</svg>
