<svg width="112" height="30" viewBox="0 0 112 30" fill="none" xmlns="http://www.w3.org/2000/svg">
<path fill-rule="evenodd" clip-rule="evenodd" d="M10.4492 1.26498C8.87383 1.26616 7.59882 2.55265 7.59998 4.13791C7.59882 5.72317 8.87499 7.00966 10.4504 7.01084H13.3008V4.13908C13.302 2.55382 12.0258 1.26733 10.4492 1.26498C10.4504 1.26498 10.4504 1.26498 10.4492 1.26498ZM10.4492 8.92768H2.85043C1.27501 8.92885 -0.00116121 10.2153 3.18214e-06 11.8006C-0.0023256 13.3859 1.27385 14.6724 2.84927 14.6747H10.4492C12.0247 14.6735 13.3008 13.387 13.2997 11.8018C13.3008 10.2153 12.0247 8.92885 10.4492 8.92768Z" fill="#C4C4C4"/>
<path fill-rule="evenodd" clip-rule="evenodd" d="M28.4996 11.8005C28.5008 10.2153 27.2246 8.92879 25.6492 8.92762C24.0737 8.92879 22.7976 10.2153 22.7987 11.8005V14.6746H25.6492C27.2246 14.6735 28.5008 13.387 28.4996 11.8005ZM20.8996 11.8005V4.13785C20.9008 2.55376 19.6258 1.26727 18.0503 1.26493C16.4749 1.2661 15.1987 2.55259 15.1999 4.13785V11.8005C15.1976 13.3858 16.4738 14.6723 18.0492 14.6746C19.6246 14.6735 20.9008 13.387 20.8996 11.8005Z" fill="#C4C4C4"/>
<path fill-rule="evenodd" clip-rule="evenodd" d="M18.0492 29.9999C19.6246 29.9988 20.9007 28.7123 20.8996 27.127C20.9007 25.5417 19.6246 24.2553 18.0492 24.2541H15.1987V27.127C15.1976 28.7111 16.4737 29.9976 18.0492 29.9999ZM18.0492 22.3361H25.6491C27.2246 22.3349 28.5007 21.0484 28.4996 19.4631C28.5019 17.8779 27.2257 16.5914 25.6503 16.589H18.0503C16.4749 16.5902 15.1987 17.8767 15.1999 19.462C15.1987 21.0484 16.4737 22.3349 18.0492 22.3361Z" fill="#C4C4C4"/>
<path fill-rule="evenodd" clip-rule="evenodd" d="M0.000267633 19.4632C-0.000896758 21.0485 1.27528 22.335 2.8507 22.3361C4.42612 22.335 5.70229 21.0485 5.70112 19.4632V16.5903H2.8507C1.27528 16.5914 -0.000896758 17.8779 0.000267633 19.4632ZM7.60025 19.4632V27.1259C7.59792 28.7112 8.87409 29.9977 10.4495 30C12.0249 29.9988 13.3011 28.7123 13.2999 27.1271V19.4655C13.3023 17.8803 12.0261 16.5938 10.4507 16.5914C8.87409 16.5914 7.59908 17.8779 7.60025 19.4632Z" fill="#C4C4C4"/>
<path d="M36.8718 20.8631L39.5733 19.2767C40.7608 21.0327 42.3046 21.9107 44.2046 21.9107C45.1348 21.9107 45.8671 21.7311 46.4014 21.372C46.9556 20.9928 47.2327 20.4939 47.2327 19.8753C47.2327 19.3764 47.0051 18.9374 46.5499 18.5583C46.1144 18.1791 45.6493 17.8998 45.1546 17.7202C44.6598 17.5206 43.9176 17.2612 42.928 16.9419C42.7499 16.8821 42.6212 16.8421 42.5421 16.8222C41.8296 16.5827 41.2259 16.3532 40.7311 16.1337C40.2561 15.8943 39.7514 15.585 39.2171 15.2058C38.6827 14.8067 38.277 14.3178 37.9999 13.7391C37.7228 13.1405 37.5843 12.452 37.5843 11.6738C37.5843 10.1572 38.2176 8.9399 39.4843 8.02197C40.7509 7.10403 42.3244 6.64506 44.2046 6.64506C45.6098 6.64506 46.9358 7.02421 48.1827 7.78251C49.4295 8.52085 50.3597 9.46872 50.9733 10.6261L48.4795 12.1527C47.3118 10.5363 45.8967 9.72813 44.2342 9.72813C43.3238 9.72813 42.6212 9.91771 42.1264 10.2969C41.6514 10.656 41.4139 11.135 41.4139 11.7336C41.4139 12.2325 41.6217 12.6815 42.0374 13.0806C42.4728 13.4597 42.9181 13.7391 43.3733 13.9187C43.8285 14.0983 44.4717 14.3278 45.303 14.6072C45.5207 14.667 45.679 14.7169 45.778 14.7568C49.3009 15.8943 51.0624 17.6104 51.0624 19.9053C51.0624 21.3221 50.4686 22.5294 49.2811 23.5271C48.1134 24.5049 46.4509 24.9938 44.2936 24.9938C42.6311 24.9938 41.1467 24.6246 39.8405 23.8863C38.554 23.148 37.5645 22.1402 36.8718 20.8631Z" fill="#C4C4C4"/>
<path d="M54.328 24.455V0H58.0686V24.455H54.328Z" fill="#C4C4C4"/>
<path d="M65.2529 19.6059C65.2529 20.2445 65.5003 20.7833 65.9951 21.2223C66.5097 21.6414 67.1826 21.8509 68.0139 21.8509C69.2014 21.8509 70.2108 21.4518 71.042 20.6536C71.893 19.8554 72.3186 18.8077 72.3186 17.5106V15.9242C71.4081 16.1437 70.3097 16.3532 69.0233 16.5528C66.5097 16.9519 65.2529 17.9696 65.2529 19.6059ZM61.453 19.9352C61.453 16.6825 63.8477 14.697 68.6373 13.9786C70.379 13.7192 71.6061 13.4797 72.3186 13.2602V12.3323C72.3186 11.4942 72.0217 10.8356 71.4279 10.3567C70.8342 9.8778 70.0425 9.63833 69.0529 9.63833C67.1727 9.63833 65.5498 10.4166 64.1842 11.9731L61.8983 9.99753C62.7889 8.9399 63.8477 8.12174 65.0748 7.54304C66.3217 6.94439 67.6279 6.64506 68.9936 6.64506C71.5467 6.64506 73.3675 7.27365 74.4561 8.53082C75.5446 9.76804 76.0889 11.5041 76.0889 13.7391V24.455H72.4373V22.2999C72.0811 23.0382 71.4576 23.6768 70.567 24.2156C69.6962 24.7344 68.667 24.9938 67.4795 24.9938C65.5993 24.9938 64.1248 24.5249 63.0561 23.587C61.9873 22.6491 61.453 21.4318 61.453 19.9352Z" fill="#C4C4C4"/>
<path d="M78.9685 15.8344C78.9685 13.0606 79.7008 10.8356 81.1654 9.15941C82.6498 7.48318 84.5597 6.64506 86.8951 6.64506C88.5972 6.64506 90.0321 7.1639 91.1998 8.20156C92.3675 9.23923 93.0998 10.4266 93.3966 11.7636L90.1904 12.6615C89.9529 11.9032 89.5472 11.2547 88.9732 10.7159C88.3993 10.1572 87.7164 9.8778 86.9248 9.8778C85.6383 9.8778 84.629 10.4465 83.8967 11.584C83.1842 12.7214 82.8279 14.1382 82.8279 15.8344C82.8279 17.7102 83.2138 19.1669 83.9857 20.2046C84.7576 21.2422 85.7373 21.7611 86.9248 21.7611C87.7956 21.7611 88.5576 21.4618 89.2107 20.8631C89.8836 20.2445 90.3487 19.5461 90.606 18.7678L93.8123 19.6957C93.4362 21.0926 92.6149 22.3298 91.3482 23.4074C90.0815 24.465 88.5972 24.9938 86.8951 24.9938C84.5597 24.9938 82.6498 24.1657 81.1654 22.5094C79.7008 20.8332 78.9685 18.6082 78.9685 15.8344Z" fill="#C4C4C4"/>
<path d="M96.6326 24.455V0H100.373V14.0684L106.459 7.18385H111.179L104.856 14.218L111.565 24.455H107.172L102.422 16.8821L100.373 19.1569V24.455H96.6326Z" fill="#C4C4C4"/>
</svg>
